<svg id="f8a86e6c-9363-4235-bef7-f00f26e86e8b" data-name="Layer 1" xmlns="http://www.w3.org/2000/svg" xmlns:xlink="http://www.w3.org/1999/xlink" width="296.16" height="179.85" viewBox="0 0 296.16 179.85"><defs><linearGradient id="f4331246-3163-4cb9-b655-71dc292c06bf" x1="1" y1="68.38" x2="228.11" y2="68.38" gradientUnits="userSpaceOnUse"><stop offset="0" stop-color="#6a7cff"/><stop offset="0.01" stop-color="#697bfd"/><stop offset="0.18" stop-color="#5a67cf"/><stop offset="0.35" stop-color="#4e55a8"/><stop offset="0.52" stop-color="#44488a"/><stop offset="0.69" stop-color="#3d3f74"/><stop offset="0.85" stop-color="#383967"/><stop offset="1" stop-color="#373763"/></linearGradient></defs><title>Untitled-1</title><rect x="1" y="1" width="227.11" height="134.76" rx="1.81" fill="url(#f4331246-3163-4cb9-b655-71dc292c06bf)"/><path d="M228.3,62.08a.81.81,0,0,1,.81.81V194a.82.82,0,0,1-.81.82H4.81A.82.82,0,0,1,4,194V62.89a.81.81,0,0,1,.81-.81H228.3m0-2H4.81A2.81,2.81,0,0,0,2,62.89V194a2.81,2.81,0,0,0,2.81,2.82H228.3a2.81,2.81,0,0,0,2.81-2.82V62.89a2.81,2.81,0,0,0-2.81-2.81Z" transform="translate(-2 -60.08)" fill="#3535bc"/><polygon points="136.76 174.23 91.17 174.23 97.25 138.63 130.68 138.63 136.76 174.23" fill="#9595b7"/><path d="M68.57,174.23H160a3,3,0,0,1,3,3v2.62a0,0,0,0,1,0,0H65.57a0,0,0,0,1,0,0v-2.62A3,3,0,0,1,68.57,174.23Z" fill="#383872"/><g opacity="0.3"><rect x="9.16" y="59.07" width="65.78" height="39.27" rx="2.81" fill="#373763"/><path d="M11.16,121.34h0a2.67,2.67,0,0,1,2.67-2.68H74.26a2.68,2.68,0,0,1,2.68,2.68h0" transform="translate(-2 -60.08)" fill="#3535bc"/><circle cx="67.8" cy="60.02" r="0.48" fill="#d6d6ed"/><circle cx="69.7" cy="60.02" r="0.48" fill="#d6d6ed"/><circle cx="71.61" cy="60.02" r="0.48" fill="#d6d6ed"/><line x1="12.12" y1="63.35" x2="12.12" y2="94.76" fill="none" stroke="#e1e1ef" stroke-miterlimit="10" stroke-width="0.5"/><circle cx="14.5" cy="64.77" r="0.48" fill="#7d7dd3"/><circle cx="14.5" cy="87.62" r="0.48" fill="#7d7dd3"/><circle cx="14.5" cy="67.63" r="0.48" fill="#d1d1f2"/><circle cx="14.5" cy="84.76" r="0.48" fill="#d1d1f2"/><circle cx="14.5" cy="70.49" r="0.48" fill="#5d5da3"/><circle cx="14.5" cy="73.34" r="0.48" fill="#428acc"/><circle cx="14.5" cy="93.33" r="0.48" fill="#428acc"/><circle cx="14.5" cy="90.47" r="0.48" fill="#428acc"/><circle cx="14.5" cy="76.2" r="0.48" fill="#a1c11e"/><circle cx="14.5" cy="79.05" r="0.48" fill="#841fbf"/><circle cx="14.5" cy="81.91" r="0.48" fill="#0d7cba"/><line x1="17.83" y1="64.77" x2="31.15" y2="64.77" fill="none" stroke="#ffeb17" stroke-miterlimit="10"/><line x1="51.14" y1="73.34" x2="67.8" y2="73.34" fill="none" stroke="#ffeb17" stroke-miterlimit="10"/><line x1="48.29" y1="79.05" x2="64.94" y2="79.05" fill="none" stroke="#ffeb17" stroke-miterlimit="10"/><line x1="33.53" y1="67.63" x2="51.62" y2="67.63" fill="none" stroke="#ffeb17" stroke-miterlimit="10"/><line x1="17.83" y1="84.76" x2="31.63" y2="84.76" fill="none" stroke="#ffeb17" stroke-miterlimit="10"/><line x1="17.83" y1="67.63" x2="31.15" y2="67.63" fill="none" stroke="#e8e5d1" stroke-miterlimit="10"/><line x1="17.83" y1="81.91" x2="35.44" y2="81.91" fill="none" stroke="#994154" stroke-miterlimit="10"/><line x1="37.82" y1="81.91" x2="55.42" y2="81.91" fill="none" stroke="#0b479e" stroke-miterlimit="10"/><line x1="47.33" y1="84.76" x2="64.94" y2="84.76" fill="none" stroke="#0b479e" stroke-miterlimit="10"/><line x1="34.96" y1="64.77" x2="48.29" y2="64.77" fill="none" stroke="#5cbfff" stroke-miterlimit="10"/><line x1="44" y1="76.2" x2="62.09" y2="76.2" fill="none" stroke="#419cce" stroke-miterlimit="10"/><line x1="54.95" y1="67.63" x2="68.27" y2="67.63" fill="none" stroke="#5cbfff" stroke-miterlimit="10"/><line x1="17.83" y1="73.34" x2="31.15" y2="73.34" fill="none" stroke="#5cbfff" stroke-miterlimit="10"/><line x1="29.25" y1="76.2" x2="42.58" y2="76.2" fill="none" stroke="#5cbfff" stroke-miterlimit="10"/><line x1="33.06" y1="84.76" x2="46.38" y2="84.76" fill="none" stroke="#5cbfff" stroke-miterlimit="10"/><line x1="17.83" y1="79.05" x2="31.15" y2="79.05" fill="none" stroke="#660fb2" stroke-miterlimit="10"/><line x1="34.01" y1="79.05" x2="47.33" y2="79.05" fill="none" stroke="#906db5" stroke-miterlimit="10"/><line x1="51.14" y1="64.77" x2="67.8" y2="64.77" fill="none" stroke="#a3860d" stroke-miterlimit="10"/><line x1="33.06" y1="73.34" x2="49.71" y2="73.34" fill="none" stroke="#a3860d" stroke-miterlimit="10"/><line x1="56.85" y1="81.91" x2="67.8" y2="81.91" fill="none" stroke="#a3860d" stroke-miterlimit="10"/><line x1="18.59" y1="69.88" x2="17.83" y2="71.91" fill="none" stroke="#b5b3a3" stroke-miterlimit="10" stroke-width="0.25"/><text transform="translate(18.57 71.52)" font-size="1.59" fill="#898988" font-family="Avenir-Light, Avenir" font-weight="300">*</text><line x1="67.2" y1="69.91" x2="66.3" y2="71.88" fill="none" stroke="#bfbba3" stroke-miterlimit="10" stroke-width="0.25"/><text transform="matrix(-1, 0, 0, 1, 66.39, 71.52)" font-size="1.59" fill="#898988" font-family="Avenir-Light, Avenir" font-weight="300">*</text><text transform="translate(19.65 71.85)" font-size="4.76" fill="#898988" font-family="Avenir-Light, Avenir" font-weight="300">--------------</text><text transform="translate(42.49 71.85)" font-size="4.76" fill="#898988" font-family="Avenir-Light, Avenir" font-weight="300">--------------</text><text transform="translate(31.86 93.65)" font-size="7.61" fill="#6d6de2" font-family="Avenir-Black, Avenir" font-weight="800">&lt; / &gt;</text><text transform="translate(59.19 92.7)" font-size="4.42" fill="#4d4d8c" font-family="Avenir-Light, Avenir" font-weight="300"><tspan xml:space="preserve"> { }</tspan></text></g><g opacity="0.2"><rect x="123.43" y="29.1" width="65.78" height="39.27" rx="2.81" fill="#373763"/><path d="M125.43,91.36h0a2.68,2.68,0,0,1,2.68-2.67h60.43a2.68,2.68,0,0,1,2.68,2.67h0" transform="translate(-2 -60.08)" fill="#3535bc"/><circle cx="182.08" cy="30.04" r="0.48" fill="#d6d6ed"/><circle cx="183.98" cy="30.04" r="0.48" fill="#d6d6ed"/><circle cx="185.88" cy="30.04" r="0.48" fill="#d6d6ed"/><line x1="126.4" y1="33.37" x2="126.4" y2="64.78" fill="none" stroke="#e1e1ef" stroke-miterlimit="10" stroke-width="0.5"/><circle cx="128.78" cy="34.8" r="0.48" fill="#7d7dd3"/><circle cx="128.78" cy="57.64" r="0.48" fill="#7d7dd3"/><circle cx="128.78" cy="37.65" r="0.48" fill="#d1d1f2"/><circle cx="128.78" cy="54.79" r="0.48" fill="#d1d1f2"/><circle cx="128.78" cy="40.51" r="0.48" fill="#5d5da3"/><circle cx="128.78" cy="43.37" r="0.48" fill="#428acc"/><circle cx="128.78" cy="63.35" r="0.48" fill="#428acc"/><circle cx="128.78" cy="60.5" r="0.48" fill="#428acc"/><circle cx="128.78" cy="46.22" r="0.48" fill="#a1c11e"/><circle cx="128.78" cy="49.08" r="0.48" fill="#841fbf"/><circle cx="128.78" cy="51.93" r="0.48" fill="#0d7cba"/><line x1="132.11" y1="34.8" x2="145.43" y2="34.8" fill="none" stroke="#ffeb17" stroke-miterlimit="10"/><line x1="165.42" y1="43.37" x2="182.08" y2="43.37" fill="none" stroke="#ffeb17" stroke-miterlimit="10"/><line x1="162.57" y1="49.08" x2="179.22" y2="49.08" fill="none" stroke="#ffeb17" stroke-miterlimit="10"/><line x1="147.81" y1="37.65" x2="165.9" y2="37.65" fill="none" stroke="#ffeb17" stroke-miterlimit="10"/><line x1="132.11" y1="54.79" x2="145.91" y2="54.79" fill="none" stroke="#ffeb17" stroke-miterlimit="10"/><line x1="132.11" y1="37.65" x2="145.43" y2="37.65" fill="none" stroke="#e8e5d1" stroke-miterlimit="10"/><line x1="132.11" y1="51.93" x2="149.72" y2="51.93" fill="none" stroke="#994154" stroke-miterlimit="10"/><line x1="152.1" y1="51.93" x2="169.7" y2="51.93" fill="none" stroke="#0b479e" stroke-miterlimit="10"/><line x1="161.61" y1="54.79" x2="179.22" y2="54.79" fill="none" stroke="#0b479e" stroke-miterlimit="10"/><line x1="149.24" y1="34.8" x2="162.57" y2="34.8" fill="none" stroke="#5cbfff" stroke-miterlimit="10"/><line x1="158.28" y1="46.22" x2="176.37" y2="46.22" fill="none" stroke="#419cce" stroke-miterlimit="10"/><line x1="169.23" y1="37.65" x2="182.55" y2="37.65" fill="none" stroke="#5cbfff" stroke-miterlimit="10"/><line x1="132.11" y1="43.37" x2="145.43" y2="43.37" fill="none" stroke="#5cbfff" stroke-miterlimit="10"/><line x1="143.53" y1="46.22" x2="156.85" y2="46.22" fill="none" stroke="#5cbfff" stroke-miterlimit="10"/><line x1="147.34" y1="54.79" x2="160.66" y2="54.79" fill="none" stroke="#5cbfff" stroke-miterlimit="10"/><line x1="132.11" y1="49.08" x2="145.43" y2="49.08" fill="none" stroke="#660fb2" stroke-miterlimit="10"/><line x1="148.29" y1="49.08" x2="161.61" y2="49.08" fill="none" stroke="#906db5" stroke-miterlimit="10"/><line x1="165.42" y1="34.8" x2="182.08" y2="34.8" fill="none" stroke="#a3860d" stroke-miterlimit="10"/><line x1="147.34" y1="43.37" x2="163.99" y2="43.37" fill="none" stroke="#a3860d" stroke-miterlimit="10"/><line x1="171.13" y1="51.93" x2="182.08" y2="51.93" fill="none" stroke="#a3860d" stroke-miterlimit="10"/><line x1="132.87" y1="39.9" x2="132.11" y2="41.94" fill="none" stroke="#b5b3a3" stroke-miterlimit="10" stroke-width="0.25"/><text transform="translate(132.85 41.54)" font-size="1.59" fill="#898988" font-family="Avenir-Light, Avenir" font-weight="300">*</text><line x1="181.48" y1="39.93" x2="180.58" y2="41.91" fill="none" stroke="#bfbba3" stroke-miterlimit="10" stroke-width="0.25"/><text transform="matrix(-1, 0, 0, 1, 180.67, 41.54)" font-size="1.59" fill="#898988" font-family="Avenir-Light, Avenir" font-weight="300">*</text><text transform="translate(133.92 41.87)" font-size="4.76" fill="#898988" font-family="Avenir-Light, Avenir" font-weight="300">--------------</text><text transform="translate(156.77 41.87)" font-size="4.76" fill="#898988" font-family="Avenir-Light, Avenir" font-weight="300">--------------</text><text transform="translate(146.14 63.67)" font-size="7.61" fill="#6d6de2" font-family="Avenir-Black, Avenir" font-weight="800">&lt; / &gt;</text><text transform="translate(173.47 62.73)" font-size="4.42" fill="#4d4d8c" font-family="Avenir-Light, Avenir" font-weight="300"><tspan xml:space="preserve"> { }</tspan></text></g><rect x="22.48" y="24.35" width="59.95" height="26.23" rx="2.41" fill="#2a2acc"/><polygon points="65.76 50.58 71.19 50.58 68.47 55.29 65.76 59.99 63.04 55.29 60.32 50.58 65.76 50.58" fill="#3333d3"/><rect x="73.95" y="144.42" width="47.19" height="20.65" rx="2.41" transform="translate(193.09 249.42) rotate(-180)" fill="#2a2acc"/><polygon points="85.07 105 80.8 105 82.94 108.7 85.07 112.41 87.21 108.7 89.35 105 85.07 105" fill="#3333d3"/><text transform="translate(35.78 41.43)" font-size="13.11" fill="#dddded" font-family="Avenir-Light, Avenir" font-weight="300">React</text><text transform="translate(163.71 163.68)" font-size="11.24" fill="#2a2acc" font-family="Avenir-Roman, Avenir"><tspan xml:space="preserve"> { </tspan><tspan x="9.99" y="0" font-size="9.37" font-family="Avenir-Black, Avenir" font-weight="800">React Native</tspan><tspan x="67.07" y="0" xml:space="preserve"> }</tspan></text><text transform="translate(86.12 97.72)" font-size="11.24" fill="#d6d6ea" font-family="Avenir-Roman, Avenir">CSS</text><text transform="translate(74.72 123.99)" font-size="11.24" fill="#d6d6ea" font-family="Avenir-Roman, Avenir">. #</text><text transform="translate(238.38 26.53)" font-size="9.37" fill="#2a2acc" font-family="Avenir-Black, Avenir" font-weight="800">&lt; HTML /&gt;</text><text transform="translate(149.99 15.39)" font-size="9.37" fill="#a9a9d8" font-family="Avenir-Black, Avenir" font-weight="800">JavaScript }</text><text transform="translate(199.15 25.66)" font-size="9.37" fill="#a9a9d8" font-family="Avenir-Black, Avenir" font-weight="800">=&gt;</text><rect x="144.04" y="37.42" width="151.96" height="90.71" rx="2.81" fill="#373763"/><path d="M146,102.55h0A6.19,6.19,0,0,1,152.22,95h139.6a6.21,6.21,0,0,1,6.18,7.55h0" transform="translate(-2 -60.08)" fill="#3535bc"/><circle cx="279.51" cy="39.59" r="1.1" fill="#d6d6ed"/><circle cx="283.91" cy="39.59" r="1.1" fill="#d6d6ed"/><circle cx="288.3" cy="39.59" r="1.1" fill="#d6d6ed"/><line x1="150.89" y1="47.29" x2="150.89" y2="119.85" fill="none" stroke="#e1e1ef" stroke-miterlimit="10" stroke-width="0.5"/><circle cx="156.38" cy="50.59" r="1.1" fill="#7d7dd3"/><circle cx="156.38" cy="103.36" r="1.1" fill="#7d7dd3"/><circle cx="156.38" cy="57.18" r="1.1" fill="#d1d1f2"/><circle cx="156.38" cy="96.76" r="1.1" fill="#d1d1f2"/><circle cx="156.38" cy="63.78" r="1.1" fill="#5d5da3"/><circle cx="156.38" cy="70.38" r="1.1" fill="#428acc"/><circle cx="156.38" cy="116.55" r="1.1" fill="#428acc"/><circle cx="156.38" cy="109.95" r="1.1" fill="#428acc"/><circle cx="156.38" cy="76.97" r="1.1" fill="#a1c11e"/><circle cx="156.38" cy="83.57" r="1.1" fill="#841fbf"/><circle cx="156.38" cy="90.16" r="1.1" fill="#0d7cba"/><line x1="164.08" y1="50.59" x2="194.86" y2="50.59" fill="none" stroke="#ffeb17" stroke-miterlimit="10"/><line x1="241.03" y1="70.38" x2="279.51" y2="70.38" fill="none" stroke="#ffeb17" stroke-miterlimit="10"/><line x1="234.44" y1="83.57" x2="272.91" y2="83.57" fill="none" stroke="#ffeb17" stroke-miterlimit="10"/><line x1="200.36" y1="57.18" x2="242.13" y2="57.18" fill="none" stroke="#ffeb17" stroke-miterlimit="10"/><line x1="164.08" y1="96.76" x2="195.96" y2="96.76" fill="none" stroke="#ffeb17" stroke-miterlimit="10"/><line x1="164.08" y1="57.18" x2="194.86" y2="57.18" fill="none" stroke="#e8e5d1" stroke-miterlimit="10"/><line x1="164.08" y1="90.16" x2="204.75" y2="90.16" fill="none" stroke="#994154" stroke-miterlimit="10"/><line x1="210.25" y1="90.16" x2="250.93" y2="90.16" fill="none" stroke="#0b479e" stroke-miterlimit="10"/><line x1="232.24" y1="96.76" x2="272.91" y2="96.76" fill="none" stroke="#0b479e" stroke-miterlimit="10"/><line x1="203.65" y1="50.59" x2="234.44" y2="50.59" fill="none" stroke="#5cbfff" stroke-miterlimit="10"/><line x1="224.54" y1="76.97" x2="266.32" y2="76.97" fill="none" stroke="#419cce" stroke-miterlimit="10"/><line x1="249.83" y1="57.18" x2="280.61" y2="57.18" fill="none" stroke="#5cbfff" stroke-miterlimit="10"/><line x1="164.08" y1="70.38" x2="194.86" y2="70.38" fill="none" stroke="#5cbfff" stroke-miterlimit="10"/><line x1="190.46" y1="76.97" x2="221.24" y2="76.97" fill="none" stroke="#5cbfff" stroke-miterlimit="10"/><line x1="199.26" y1="96.76" x2="230.04" y2="96.76" fill="none" stroke="#5cbfff" stroke-miterlimit="10"/><line x1="164.08" y1="83.57" x2="194.86" y2="83.57" fill="none" stroke="#660fb2" stroke-miterlimit="10"/><line x1="201.46" y1="83.57" x2="232.24" y2="83.57" fill="none" stroke="#906db5" stroke-miterlimit="10"/><line x1="241.03" y1="50.59" x2="279.51" y2="50.59" fill="none" stroke="#a3860d" stroke-miterlimit="10"/><line x1="199.26" y1="70.38" x2="237.73" y2="70.38" fill="none" stroke="#a3860d" stroke-miterlimit="10"/><line x1="254.22" y1="90.16" x2="279.51" y2="90.16" fill="none" stroke="#a3860d" stroke-miterlimit="10"/><line x1="165.84" y1="62.37" x2="164.08" y2="67.08" fill="none" stroke="#b5b3a3" stroke-miterlimit="10" stroke-width="0.25"/><text transform="translate(165.79 66.16)" font-size="3.68" fill="#898988" font-family="Avenir-Light, Avenir" font-weight="300">*</text><line x1="278.14" y1="62.44" x2="276.05" y2="67.01" fill="none" stroke="#bfbba3" stroke-miterlimit="10" stroke-width="0.25"/><text transform="matrix(-1, 0, 0, 1, 276.26, 66.16)" font-size="3.68" fill="#898988" font-family="Avenir-Light, Avenir" font-weight="300">*</text><text transform="translate(168.27 66.93)" font-size="10.99" fill="#898988" font-family="Avenir-Light, Avenir" font-weight="300">--------------</text><text transform="translate(221.04 66.93)" font-size="10.99" fill="#898988" font-family="Avenir-Light, Avenir" font-weight="300">--------------</text><text transform="translate(196.48 117.29)" font-size="17.59" fill="#6d6de2" font-family="Avenir-Black, Avenir" font-weight="800">&lt; / &gt;</text><text transform="translate(259.62 115.09)" font-size="10.22" fill="#4d4d8c" font-family="Avenir-Light, Avenir" font-weight="300"><tspan xml:space="preserve"> { }</tspan></text></svg>