<svg id="acc86267-3f94-454d-a778-3fe95217cc6d" data-name="Layer 1" xmlns="http://www.w3.org/2000/svg" xmlns:xlink="http://www.w3.org/1999/xlink" width="510.38" height="375.94" viewBox="0 0 510.38 375.94"><defs><linearGradient id="b98493a1-4150-48e1-9e06-6c8779c01eb5" x1="20.29" y1="162.6" x2="375.36" y2="162.6" gradientUnits="userSpaceOnUse"><stop offset="0" stop-color="#008dd5"/><stop offset="0.15" stop-color="#0487ce"/><stop offset="0.38" stop-color="#0d78b9"/><stop offset="0.65" stop-color="#1d5f98"/><stop offset="0.96" stop-color="#333d6a"/><stop offset="1" stop-color="#373763"/></linearGradient><linearGradient id="f44e978b-bbca-49d3-b97b-597f238b89f4" x1="90.42" y1="219.66" x2="445.49" y2="219.66" xlink:href="#b98493a1-4150-48e1-9e06-6c8779c01eb5"/></defs><title>coding</title><path d="M71.89,137.35S51.52,68.5,149.5,83.57c94,14.45,89,4.32,134.68-10.75C347.32,52,611.51,20.59,577.5,211.64c-28.09,157.81-12.39,159.46-24,181-15.59,29-40.48,0-163.6,27.26C263.72,447.81,75.76,460.85,71.89,137.35Z" transform="translate(-70.13 -57.06)" fill="#008dd5" opacity="0.5"/><rect x="20.29" y="56.63" width="355.07" height="211.95" rx="2.81" fill="url(#b98493a1-4150-48e1-9e06-6c8779c01eb5)"/><path d="M441.49,117.69v204H94.42V117.69H441.49m1.19-4H93.23a2.81,2.81,0,0,0-2.81,2.81V322.83a2.81,2.81,0,0,0,2.81,2.81H442.68a2.81,2.81,0,0,0,2.81-2.81V116.5a2.81,2.81,0,0,0-2.81-2.81Z" transform="translate(-70.13 -57.06)" fill="url(#f44e978b-bbca-49d3-b97b-597f238b89f4)"/><polygon points="232.24 326.64 161.59 326.64 171.01 271.48 222.81 271.48 232.24 326.64" fill="#343470"/><path d="M124.91,326.64h145a3,3,0,0,1,3,3v5.71a0,0,0,0,1,0,0h-151a0,0,0,0,1,0,0v-5.71A3,3,0,0,1,124.91,326.64Z" fill="#008dd5"/><g opacity="0.3"><rect x="34.48" y="148.18" width="101.95" height="60.85" rx="2.81" fill="#373763"/><path d="M104.61,208.63h0a4.14,4.14,0,0,1,4.15-4.14h93.65a4.14,4.14,0,0,1,4.15,4.14h0" transform="translate(-70.13 -57.06)" fill="#3535bc"/><circle cx="125.36" cy="149.64" r="0.74" fill="#d6d6ed"/><circle cx="128.31" cy="149.64" r="0.74" fill="#d6d6ed"/><circle cx="131.26" cy="149.64" r="0.74" fill="#d6d6ed"/><line x1="39.07" y1="154.8" x2="39.07" y2="203.48" fill="none" stroke="#e1e1ef" stroke-miterlimit="10" stroke-width="0.5"/><circle cx="42.76" cy="157.01" r="0.74" fill="#7d7dd3"/><circle cx="42.76" cy="192.41" r="0.74" fill="#7d7dd3"/><circle cx="42.76" cy="161.44" r="0.74" fill="#d1d1f2"/><circle cx="42.76" cy="187.99" r="0.74" fill="#d1d1f2"/><circle cx="42.76" cy="165.86" r="0.74" fill="#5d5da3"/><circle cx="42.76" cy="170.29" r="0.74" fill="#428acc"/><circle cx="42.76" cy="201.26" r="0.74" fill="#428acc"/><circle cx="42.76" cy="196.84" r="0.74" fill="#428acc"/><circle cx="42.76" cy="174.71" r="0.74" fill="#a1c11e"/><circle cx="42.76" cy="179.14" r="0.74" fill="#841fbf"/><circle cx="42.76" cy="183.56" r="0.74" fill="#0d7cba"/><line x1="47.92" y1="157.01" x2="68.57" y2="157.01" fill="none" stroke="#ffeb17" stroke-miterlimit="10"/><line x1="99.55" y1="170.29" x2="125.36" y2="170.29" fill="none" stroke="#ffeb17" stroke-miterlimit="10"/><line x1="95.12" y1="179.14" x2="120.94" y2="179.14" fill="none" stroke="#ffeb17" stroke-miterlimit="10"/><line x1="72.26" y1="161.44" x2="100.28" y2="161.44" fill="none" stroke="#ffeb17" stroke-miterlimit="10"/><line x1="47.92" y1="187.99" x2="69.31" y2="187.99" fill="none" stroke="#ffeb17" stroke-miterlimit="10"/><line x1="47.92" y1="161.44" x2="68.57" y2="161.44" fill="none" stroke="#e8e5d1" stroke-miterlimit="10"/><line x1="47.92" y1="183.56" x2="75.21" y2="183.56" fill="none" stroke="#994154" stroke-miterlimit="10"/><line x1="78.9" y1="183.56" x2="106.18" y2="183.56" fill="none" stroke="#0b479e" stroke-miterlimit="10"/><line x1="93.65" y1="187.99" x2="120.94" y2="187.99" fill="none" stroke="#0b479e" stroke-miterlimit="10"/><line x1="74.47" y1="157.01" x2="95.12" y2="157.01" fill="none" stroke="#5cbfff" stroke-miterlimit="10"/><line x1="88.48" y1="174.71" x2="116.51" y2="174.71" fill="none" stroke="#419cce" stroke-miterlimit="10"/><line x1="105.45" y1="161.44" x2="126.1" y2="161.44" fill="none" stroke="#5cbfff" stroke-miterlimit="10"/><line x1="47.92" y1="170.29" x2="68.57" y2="170.29" fill="none" stroke="#5cbfff" stroke-miterlimit="10"/><line x1="65.62" y1="174.71" x2="86.27" y2="174.71" fill="none" stroke="#5cbfff" stroke-miterlimit="10"/><line x1="71.52" y1="187.99" x2="92.17" y2="187.99" fill="none" stroke="#5cbfff" stroke-miterlimit="10"/><line x1="47.92" y1="179.14" x2="68.57" y2="179.14" fill="none" stroke="#660fb2" stroke-miterlimit="10"/><line x1="73" y1="179.14" x2="93.65" y2="179.14" fill="none" stroke="#906db5" stroke-miterlimit="10"/><line x1="99.55" y1="157.01" x2="125.36" y2="157.01" fill="none" stroke="#a3860d" stroke-miterlimit="10"/><line x1="71.52" y1="170.29" x2="97.33" y2="170.29" fill="none" stroke="#a3860d" stroke-miterlimit="10"/><line x1="108.4" y1="183.56" x2="125.36" y2="183.56" fill="none" stroke="#a3860d" stroke-miterlimit="10"/><line x1="49.1" y1="164.92" x2="47.92" y2="168.08" fill="none" stroke="#b5b3a3" stroke-miterlimit="10" stroke-width="0.25"/><text transform="translate(49.07 167.46)" font-size="2.46" fill="#898988" font-family="Avenir-Light, Avenir" font-weight="300">*</text><line x1="124.44" y1="164.97" x2="123.04" y2="168.03" fill="none" stroke="#bfbba3" stroke-miterlimit="10" stroke-width="0.25"/><text transform="matrix(-1, 0, 0, 1, 123.17, 167.46)" font-size="2.46" fill="#898988" font-family="Avenir-Light, Avenir" font-weight="300">*</text><text transform="translate(50.73 167.97)" font-size="7.38" fill="#898988" font-family="Avenir-Light, Avenir" font-weight="300">--------------</text><text transform="translate(86.14 167.97)" font-size="7.38" fill="#898988" font-family="Avenir-Light, Avenir" font-weight="300">--------------</text><text transform="translate(112.02 200.29)" font-size="6.85" fill="#4d4d8c" font-family="Avenir-Light, Avenir" font-weight="300"><tspan xml:space="preserve"> { }</tspan></text></g><g opacity="0.2"><rect x="211.58" y="101.72" width="101.95" height="60.85" rx="2.81" fill="#373763"/><path d="M281.72,162.18h0a4.14,4.14,0,0,1,4.14-4.15h93.66a4.14,4.14,0,0,1,4.14,4.15h0" transform="translate(-70.13 -57.06)" fill="#3535bc"/><circle cx="302.47" cy="103.18" r="0.74" fill="#d6d6ed"/><circle cx="305.42" cy="103.18" r="0.74" fill="#d6d6ed"/><circle cx="308.37" cy="103.18" r="0.74" fill="#d6d6ed"/><line x1="216.18" y1="108.35" x2="216.18" y2="157.02" fill="none" stroke="#e1e1ef" stroke-miterlimit="10" stroke-width="0.5"/><circle cx="219.86" cy="110.56" r="0.74" fill="#7d7dd3"/><circle cx="219.86" cy="145.96" r="0.74" fill="#7d7dd3"/><circle cx="219.86" cy="114.98" r="0.74" fill="#d1d1f2"/><circle cx="219.86" cy="141.53" r="0.74" fill="#d1d1f2"/><circle cx="219.86" cy="119.41" r="0.74" fill="#5d5da3"/><circle cx="219.86" cy="123.83" r="0.74" fill="#428acc"/><circle cx="219.86" cy="154.81" r="0.74" fill="#428acc"/><circle cx="219.86" cy="150.39" r="0.74" fill="#428acc"/><circle cx="219.86" cy="128.26" r="0.74" fill="#a1c11e"/><circle cx="219.86" cy="132.68" r="0.74" fill="#841fbf"/><circle cx="219.86" cy="137.11" r="0.74" fill="#0d7cba"/><line x1="225.03" y1="110.56" x2="245.68" y2="110.56" fill="none" stroke="#ffeb17" stroke-miterlimit="10"/><line x1="276.65" y1="123.83" x2="302.47" y2="123.83" fill="none" stroke="#ffeb17" stroke-miterlimit="10"/><line x1="272.23" y1="132.68" x2="298.04" y2="132.68" fill="none" stroke="#ffeb17" stroke-miterlimit="10"/><line x1="249.36" y1="114.98" x2="277.39" y2="114.98" fill="none" stroke="#ffeb17" stroke-miterlimit="10"/><line x1="225.03" y1="141.53" x2="246.41" y2="141.53" fill="none" stroke="#ffeb17" stroke-miterlimit="10"/><line x1="225.03" y1="114.98" x2="245.68" y2="114.98" fill="none" stroke="#e8e5d1" stroke-miterlimit="10"/><line x1="225.03" y1="137.11" x2="252.31" y2="137.11" fill="none" stroke="#994154" stroke-miterlimit="10"/><line x1="256" y1="137.11" x2="283.29" y2="137.11" fill="none" stroke="#0b479e" stroke-miterlimit="10"/><line x1="270.75" y1="141.53" x2="298.04" y2="141.53" fill="none" stroke="#0b479e" stroke-miterlimit="10"/><line x1="251.58" y1="110.56" x2="272.23" y2="110.56" fill="none" stroke="#5cbfff" stroke-miterlimit="10"/><line x1="265.59" y1="128.26" x2="293.62" y2="128.26" fill="none" stroke="#419cce" stroke-miterlimit="10"/><line x1="282.55" y1="114.98" x2="303.2" y2="114.98" fill="none" stroke="#5cbfff" stroke-miterlimit="10"/><line x1="225.03" y1="123.83" x2="245.68" y2="123.83" fill="none" stroke="#5cbfff" stroke-miterlimit="10"/><line x1="242.73" y1="128.26" x2="263.38" y2="128.26" fill="none" stroke="#5cbfff" stroke-miterlimit="10"/><line x1="248.63" y1="141.53" x2="269.28" y2="141.53" fill="none" stroke="#5cbfff" stroke-miterlimit="10"/><line x1="225.03" y1="132.68" x2="245.68" y2="132.68" fill="none" stroke="#660fb2" stroke-miterlimit="10"/><line x1="250.1" y1="132.68" x2="270.75" y2="132.68" fill="none" stroke="#906db5" stroke-miterlimit="10"/><line x1="276.65" y1="110.56" x2="302.47" y2="110.56" fill="none" stroke="#a3860d" stroke-miterlimit="10"/><line x1="248.63" y1="123.83" x2="274.44" y2="123.83" fill="none" stroke="#a3860d" stroke-miterlimit="10"/><line x1="285.5" y1="137.11" x2="302.47" y2="137.11" fill="none" stroke="#a3860d" stroke-miterlimit="10"/><line x1="226.21" y1="118.47" x2="225.03" y2="121.62" fill="none" stroke="#b5b3a3" stroke-miterlimit="10" stroke-width="0.25"/><text transform="translate(226.18 121)" font-size="2.46" fill="#898988" font-family="Avenir-Light, Avenir" font-weight="300">*</text><line x1="301.55" y1="118.51" x2="300.14" y2="121.58" fill="none" stroke="#bfbba3" stroke-miterlimit="10" stroke-width="0.25"/><text transform="matrix(-1, 0, 0, 1, 300.28, 121)" font-size="2.46" fill="#898988" font-family="Avenir-Light, Avenir" font-weight="300">*</text><text transform="translate(227.84 121.52)" font-size="7.38" fill="#898988" font-family="Avenir-Light, Avenir" font-weight="300">--------------</text><text transform="translate(263.24 121.52)" font-size="7.38" fill="#898988" font-family="Avenir-Light, Avenir" font-weight="300">--------------</text><text transform="translate(246.77 155.3)" font-size="11.8" fill="#6d6de2" font-family="Avenir-Black, Avenir" font-weight="800">&lt; / &gt;</text><text transform="translate(289.12 153.84)" font-size="6.85" fill="#4d4d8c" font-family="Avenir-Light, Avenir" font-weight="300"><tspan xml:space="preserve"> { }</tspan></text></g><rect x="55.95" y="94.37" width="92.91" height="40.65" rx="10.72" fill="#343470"/><polygon points="122.19 135.02 130.62 135.02 126.41 142.31 122.19 149.6 117.98 142.31 113.77 135.02 122.19 135.02" fill="#393977"/><rect x="201.93" y="244.41" width="73.14" height="32" rx="11.44" transform="translate(406.86 463.76) rotate(-180)" fill="#343470"/><polygon points="152.13 219.35 145.5 219.35 148.82 225.09 152.13 230.83 155.45 225.09 158.76 219.35 152.13 219.35" fill="#393977"/><text transform="translate(75.73 120.84)" font-size="20.32" fill="#dddded" font-family="Avenir-Light, Avenir" font-weight="300">React</text><text transform="translate(274 310.29)" font-size="17.42" fill="#2a2acc" font-family="Avenir-Roman, Avenir"> <tspan x="4.84" y="0" fill="#dadaea">{ </tspan><tspan x="15.49" y="0" fill="#dadaea" font-size="14.52" font-family="Avenir-Black, Avenir" font-weight="800">React Native</tspan><tspan x="103.94" y="0" xml:space="preserve" fill="#dadaea"> }</tspan></text><text transform="translate(153.75 208.89)" font-size="17.42" fill="#d6d6ea" font-family="Avenir-Roman, Avenir">CSS</text><text transform="translate(136.08 248.78)" font-size="17.42" fill="#d6d6ea" font-family="Avenir-Roman, Avenir">. #</text><text transform="translate(389.72 97.74)" font-size="14.52" fill="#dfdfef" font-family="Avenir-Black, Avenir" font-weight="800">HTML /</text><text transform="translate(252.74 80.47)" font-size="14.52" fill="#a9a9d8" font-family="Avenir-Black, Avenir" font-weight="800">JavaScript }</text><text transform="translate(328.93 96.4)" font-size="14.52" fill="#a9a9d8" font-family="Avenir-Black, Avenir" font-weight="800">=</text><rect x="243.52" y="114.62" width="235.5" height="140.58" rx="2.81" fill="#373763"/><path d="M313.66,179.52h0c-1.62-7.06,4.28-11.71,9.57-11.71H539.58c5.29,0,11.13,4.65,9.58,11.71h0" transform="translate(-70.13 -57.06)" fill="#3535bc"/><circle cx="453.47" cy="117.99" r="1.7" fill="#d6d6ed"/><circle cx="460.28" cy="117.99" r="1.7" fill="#d6d6ed"/><circle cx="467.1" cy="117.99" r="1.7" fill="#d6d6ed"/><line x1="254.13" y1="129.91" x2="254.13" y2="242.36" fill="none" stroke="#e1e1ef" stroke-miterlimit="10" stroke-width="0.5"/><circle cx="262.65" cy="135.03" r="1.7" fill="#7d7dd3"/><circle cx="262.65" cy="216.81" r="1.7" fill="#7d7dd3"/><circle cx="262.65" cy="145.25" r="1.7" fill="#d1d1f2"/><circle cx="262.65" cy="206.58" r="1.7" fill="#d1d1f2"/><circle cx="262.65" cy="155.47" r="1.7" fill="#5d5da3"/><circle cx="262.65" cy="165.69" r="1.7" fill="#428acc"/><circle cx="262.65" cy="237.25" r="1.7" fill="#428acc"/><circle cx="262.65" cy="227.03" r="1.7" fill="#428acc"/><circle cx="262.65" cy="175.92" r="1.7" fill="#a1c11e"/><circle cx="262.65" cy="186.14" r="1.7" fill="#841fbf"/><circle cx="262.65" cy="196.36" r="1.7" fill="#0d7cba"/><line x1="274.57" y1="135.03" x2="322.28" y2="135.03" fill="none" stroke="#ffeb17" stroke-miterlimit="10"/><line x1="393.84" y1="165.69" x2="453.47" y2="165.69" fill="none" stroke="#ffeb17" stroke-miterlimit="10"/><line x1="383.61" y1="186.14" x2="443.25" y2="186.14" fill="none" stroke="#ffeb17" stroke-miterlimit="10"/><line x1="330.8" y1="145.25" x2="395.54" y2="145.25" fill="none" stroke="#ffeb17" stroke-miterlimit="10"/><line x1="274.57" y1="206.58" x2="323.98" y2="206.58" fill="none" stroke="#ffeb17" stroke-miterlimit="10"/><line x1="274.57" y1="145.25" x2="322.28" y2="145.25" fill="none" stroke="#e8e5d1" stroke-miterlimit="10"/><line x1="274.57" y1="196.36" x2="337.61" y2="196.36" fill="none" stroke="#994154" stroke-miterlimit="10"/><line x1="346.13" y1="196.36" x2="409.17" y2="196.36" fill="none" stroke="#0b479e" stroke-miterlimit="10"/><line x1="380.21" y1="206.58" x2="443.25" y2="206.58" fill="none" stroke="#0b479e" stroke-miterlimit="10"/><line x1="335.91" y1="135.03" x2="383.61" y2="135.03" fill="none" stroke="#5cbfff" stroke-miterlimit="10"/><line x1="368.28" y1="175.92" x2="433.02" y2="175.92" fill="none" stroke="#419cce" stroke-miterlimit="10"/><line x1="407.47" y1="145.25" x2="455.17" y2="145.25" fill="none" stroke="#5cbfff" stroke-miterlimit="10"/><line x1="274.57" y1="165.69" x2="322.28" y2="165.69" fill="none" stroke="#5cbfff" stroke-miterlimit="10"/><line x1="315.46" y1="175.92" x2="363.17" y2="175.92" fill="none" stroke="#5cbfff" stroke-miterlimit="10"/><line x1="329.09" y1="206.58" x2="376.8" y2="206.58" fill="none" stroke="#5cbfff" stroke-miterlimit="10"/><line x1="274.57" y1="186.14" x2="322.28" y2="186.14" fill="none" stroke="#660fb2" stroke-miterlimit="10"/><line x1="332.5" y1="186.14" x2="380.21" y2="186.14" fill="none" stroke="#906db5" stroke-miterlimit="10"/><line x1="393.84" y1="135.03" x2="453.47" y2="135.03" fill="none" stroke="#a3860d" stroke-miterlimit="10"/><line x1="329.09" y1="165.69" x2="388.72" y2="165.69" fill="none" stroke="#a3860d" stroke-miterlimit="10"/><line x1="414.28" y1="196.36" x2="453.47" y2="196.36" fill="none" stroke="#a3860d" stroke-miterlimit="10"/><line x1="277.3" y1="153.29" x2="274.57" y2="160.58" fill="none" stroke="#b5b3a3" stroke-miterlimit="10" stroke-width="0.25"/><text transform="translate(277.23 159.16)" font-size="5.7" fill="#898988" font-family="Avenir-Light, Avenir" font-weight="300">*</text><line x1="451.34" y1="153.4" x2="448.1" y2="160.48" fill="none" stroke="#bfbba3" stroke-miterlimit="10" stroke-width="0.25"/><text transform="matrix(-1, 0, 0, 1, 448.42, 159.16)" font-size="5.7" fill="#898988" font-family="Avenir-Light, Avenir" font-weight="300">*</text><text transform="translate(281.07 160.35)" font-size="17.04" fill="#898988" font-family="Avenir-Light, Avenir" font-weight="300">--------------</text><text transform="translate(362.85 160.35)" font-size="17.04" fill="#898988" font-family="Avenir-Light, Avenir" font-weight="300">--------------</text><text transform="translate(362.8 239.22)" font-size="27.26" fill="#6d6de2" font-family="Avenir-Black, Avenir" font-weight="800">/ </text><text transform="translate(76.87 203.72) scale(1.37 1)" opacity="0.3" font-size="10.34" fill="#9696e2" font-family="Avenir-Black, Avenir" font-weight="800">/ </text><text transform="translate(422.64 235)" font-size="15.83" fill="#4d4d8c" font-family="Avenir-Light, Avenir" font-weight="300"><tspan xml:space="preserve"> { }</tspan></text><polyline points="356.17 222.33 343.77 230.59 356.17 237.2" fill="none" stroke="#6d6de2" stroke-miterlimit="10" stroke-width="2"/><polyline points="377.65 222.33 390.04 230.59 377.65 237.2" fill="none" stroke="#6d6de2" stroke-miterlimit="10" stroke-width="2"/><g opacity="0.2"><polyline points="74.04 195.89 68.17 200.48 74.04 204.15" fill="none" stroke="#8f8fe2" stroke-miterlimit="10" stroke-width="3"/><polyline points="84.23 195.89 90.11 200.48 84.23 204.15" fill="none" stroke="#8f8fe2" stroke-miterlimit="10" stroke-width="3"/></g><polyline points="444.17 89.03 450.12 93 444.17 96.17" fill="none" stroke="#dfdfed" stroke-miterlimit="10" stroke-width="2"/><polyline points="342.86 89.03 348.81 93 342.86 96.17" fill="none" stroke="#2a2acc" stroke-miterlimit="10" stroke-width="2"/><polyline points="342.04 89.03 347.99 93 342.04 96.17" fill="none" stroke="#2a2acc" stroke-miterlimit="10" stroke-width="2"/><polyline points="342.04 88.21 347.99 92.17 342.04 95.35" fill="none" stroke="#a9a9d8" stroke-miterlimit="10" stroke-width="2"/><polyline points="385.99 89.03 380.04 93 385.99 96.17" fill="none" stroke="#dfdfef" stroke-miterlimit="10" stroke-width="2"/></svg>