<svg id="fcd6b31f-16e5-4a82-b883-e7aa46b2b47c" data-name="Layer 1" xmlns="http://www.w3.org/2000/svg" xmlns:xlink="http://www.w3.org/1999/xlink" width="458.99" height="278.73" viewBox="0 0 458.99 278.73"><defs><linearGradient id="f0a2cd87-7f6e-4358-9461-76ce48d716bc" y1="105.97" x2="355.07" y2="105.97" gradientUnits="userSpaceOnUse"><stop offset="0" stop-color="#010f28"/><stop offset="0.56" stop-color="#030b21"/><stop offset="1" stop-color="#050517"/></linearGradient><linearGradient id="a5bb56a1-b8f2-49be-b308-11affbd14eca" x1="90.42" y1="219.66" x2="445.49" y2="219.66" gradientUnits="userSpaceOnUse"><stop offset="0" stop-color="#007ec5"/><stop offset="0.02" stop-color="#0072b4"/><stop offset="0.07" stop-color="#02588f"/><stop offset="0.13" stop-color="#02426e"/><stop offset="0.2" stop-color="#032f53"/><stop offset="0.27" stop-color="#041f3d"/><stop offset="0.36" stop-color="#04132c"/><stop offset="0.46" stop-color="#050b20"/><stop offset="0.61" stop-color="#050619"/><stop offset="1" stop-color="#050517"/></linearGradient></defs><title>coding</title><rect width="355.07" height="211.95" rx="2.81" fill="url(#f0a2cd87-7f6e-4358-9461-76ce48d716bc)"/><path d="M441.49,117.69v204H94.42V117.69H441.49m1.19-4H93.23a2.81,2.81,0,0,0-2.81,2.81V322.83a2.81,2.81,0,0,0,2.81,2.81H442.68a2.81,2.81,0,0,0,2.81-2.81V116.5a2.81,2.81,0,0,0-2.81-2.81Z" transform="translate(-90.42 -113.69)" fill="url(#a5bb56a1-b8f2-49be-b308-11affbd14eca)"/><polygon points="211.95 270.02 141.3 270.02 150.72 214.85 202.53 214.85 211.95 270.02" fill="#0b0b1e"/><path d="M343,392.42H192v-5.71a3,3,0,0,1,3-3H340a3,3,0,0,1,3,3Z" transform="translate(-90.42 -113.69)" fill="#2a2acc"/><g opacity="0.3"><rect x="14.19" y="91.55" width="101.95" height="60.85" rx="2.81" fill="#373763"/><path d="M104.61,208.63h0a4.14,4.14,0,0,1,4.15-4.14h93.65a4.14,4.14,0,0,1,4.15,4.14h0" transform="translate(-90.42 -113.69)" fill="#3535bc"/><circle cx="105.07" cy="93.01" r="0.74" fill="#d6d6ed"/><circle cx="108.02" cy="93.01" r="0.74" fill="#d6d6ed"/><circle cx="110.97" cy="93.01" r="0.74" fill="#d6d6ed"/><line x1="18.78" y1="98.17" x2="18.78" y2="146.85" fill="none" stroke="#e1e1ef" stroke-miterlimit="10" stroke-width="0.5"/><circle cx="22.47" cy="100.39" r="0.74" fill="#7d7dd3"/><circle cx="22.47" cy="135.79" r="0.74" fill="#7d7dd3"/><circle cx="22.47" cy="104.81" r="0.74" fill="#d1d1f2"/><circle cx="22.47" cy="131.36" r="0.74" fill="#d1d1f2"/><circle cx="22.47" cy="109.24" r="0.74" fill="#5d5da3"/><circle cx="22.47" cy="113.66" r="0.74" fill="#428acc"/><circle cx="22.47" cy="144.64" r="0.74" fill="#428acc"/><circle cx="22.47" cy="140.21" r="0.74" fill="#428acc"/><circle cx="22.47" cy="118.09" r="0.74" fill="#a1c11e"/><circle cx="22.47" cy="122.51" r="0.74" fill="#841fbf"/><circle cx="22.47" cy="126.94" r="0.74" fill="#0d7cba"/><line x1="27.63" y1="100.39" x2="48.28" y2="100.39" fill="none" stroke="#ffeb17" stroke-miterlimit="10"/><line x1="79.26" y1="113.66" x2="105.07" y2="113.66" fill="none" stroke="#ffeb17" stroke-miterlimit="10"/><line x1="74.83" y1="122.51" x2="100.65" y2="122.51" fill="none" stroke="#ffeb17" stroke-miterlimit="10"/><line x1="51.97" y1="104.81" x2="80" y2="104.81" fill="none" stroke="#ffeb17" stroke-miterlimit="10"/><line x1="27.63" y1="131.36" x2="49.02" y2="131.36" fill="none" stroke="#ffeb17" stroke-miterlimit="10"/><line x1="27.63" y1="104.81" x2="48.28" y2="104.81" fill="none" stroke="#e8e5d1" stroke-miterlimit="10"/><line x1="27.63" y1="126.94" x2="54.92" y2="126.94" fill="none" stroke="#994154" stroke-miterlimit="10"/><line x1="58.61" y1="126.94" x2="85.9" y2="126.94" fill="none" stroke="#0b479e" stroke-miterlimit="10"/><line x1="73.36" y1="131.36" x2="100.65" y2="131.36" fill="none" stroke="#0b479e" stroke-miterlimit="10"/><line x1="54.18" y1="100.39" x2="74.83" y2="100.39" fill="none" stroke="#5cbfff" stroke-miterlimit="10"/><line x1="68.2" y1="118.09" x2="96.22" y2="118.09" fill="none" stroke="#419cce" stroke-miterlimit="10"/><line x1="85.16" y1="104.81" x2="105.81" y2="104.81" fill="none" stroke="#5cbfff" stroke-miterlimit="10"/><line x1="27.63" y1="113.66" x2="48.28" y2="113.66" fill="none" stroke="#5cbfff" stroke-miterlimit="10"/><line x1="45.33" y1="118.09" x2="65.98" y2="118.09" fill="none" stroke="#5cbfff" stroke-miterlimit="10"/><line x1="51.23" y1="131.36" x2="71.88" y2="131.36" fill="none" stroke="#5cbfff" stroke-miterlimit="10"/><line x1="27.63" y1="122.51" x2="48.28" y2="122.51" fill="none" stroke="#660fb2" stroke-miterlimit="10"/><line x1="52.71" y1="122.51" x2="73.36" y2="122.51" fill="none" stroke="#906db5" stroke-miterlimit="10"/><line x1="79.26" y1="100.39" x2="105.07" y2="100.39" fill="none" stroke="#a3860d" stroke-miterlimit="10"/><line x1="51.23" y1="113.66" x2="77.05" y2="113.66" fill="none" stroke="#a3860d" stroke-miterlimit="10"/><line x1="88.11" y1="126.94" x2="105.07" y2="126.94" fill="none" stroke="#a3860d" stroke-miterlimit="10"/><line x1="28.81" y1="108.29" x2="27.63" y2="111.45" fill="none" stroke="#b5b3a3" stroke-miterlimit="10" stroke-width="0.25"/><text transform="translate(28.78 110.83)" font-size="2.46" fill="#898988" font-family="Avenir-Light, Avenir" font-weight="300">*</text><line x1="104.15" y1="108.34" x2="102.75" y2="111.4" fill="none" stroke="#bfbba3" stroke-miterlimit="10" stroke-width="0.25"/><text transform="matrix(-1, 0, 0, 1, 102.89, 110.83)" font-size="2.46" fill="#898988" font-family="Avenir-Light, Avenir" font-weight="300">*</text><text transform="translate(30.44 111.34)" font-size="7.38" fill="#898988" font-family="Avenir-Light, Avenir" font-weight="300">--------------</text><text transform="translate(65.85 111.34)" font-size="7.38" fill="#898988" font-family="Avenir-Light, Avenir" font-weight="300">--------------</text><text transform="translate(91.73 143.66)" font-size="6.85" fill="#4d4d8c" font-family="Avenir-Light, Avenir" font-weight="300"><tspan xml:space="preserve"> { }</tspan></text></g><g opacity="0.2"><rect x="191.3" y="45.1" width="101.95" height="60.85" rx="2.81" fill="#373763"/><path d="M281.72,162.18h0a4.14,4.14,0,0,1,4.14-4.15h93.66a4.14,4.14,0,0,1,4.14,4.15h0" transform="translate(-90.42 -113.69)" fill="#3535bc"/><circle cx="282.18" cy="46.56" r="0.74" fill="#d6d6ed"/><circle cx="285.13" cy="46.56" r="0.74" fill="#d6d6ed"/><circle cx="288.08" cy="46.56" r="0.74" fill="#d6d6ed"/><line x1="195.89" y1="51.72" x2="195.89" y2="100.4" fill="none" stroke="#e1e1ef" stroke-miterlimit="10" stroke-width="0.5"/><circle cx="199.58" cy="53.93" r="0.74" fill="#7d7dd3"/><circle cx="199.58" cy="89.33" r="0.74" fill="#7d7dd3"/><circle cx="199.58" cy="58.36" r="0.74" fill="#d1d1f2"/><circle cx="199.58" cy="84.91" r="0.74" fill="#d1d1f2"/><circle cx="199.58" cy="62.78" r="0.74" fill="#5d5da3"/><circle cx="199.58" cy="67.21" r="0.74" fill="#428acc"/><circle cx="199.58" cy="98.18" r="0.74" fill="#428acc"/><circle cx="199.58" cy="93.76" r="0.74" fill="#428acc"/><circle cx="199.58" cy="71.63" r="0.74" fill="#a1c11e"/><circle cx="199.58" cy="76.06" r="0.74" fill="#841fbf"/><circle cx="199.58" cy="80.48" r="0.74" fill="#0d7cba"/><line x1="204.74" y1="53.93" x2="225.39" y2="53.93" fill="none" stroke="#ffeb17" stroke-miterlimit="10"/><line x1="256.37" y1="67.21" x2="282.18" y2="67.21" fill="none" stroke="#ffeb17" stroke-miterlimit="10"/><line x1="251.94" y1="76.06" x2="277.75" y2="76.06" fill="none" stroke="#ffeb17" stroke-miterlimit="10"/><line x1="229.08" y1="58.36" x2="257.1" y2="58.36" fill="none" stroke="#ffeb17" stroke-miterlimit="10"/><line x1="204.74" y1="84.91" x2="226.13" y2="84.91" fill="none" stroke="#ffeb17" stroke-miterlimit="10"/><line x1="204.74" y1="58.36" x2="225.39" y2="58.36" fill="none" stroke="#e8e5d1" stroke-miterlimit="10"/><line x1="204.74" y1="80.48" x2="232.03" y2="80.48" fill="none" stroke="#994154" stroke-miterlimit="10"/><line x1="235.72" y1="80.48" x2="263" y2="80.48" fill="none" stroke="#0b479e" stroke-miterlimit="10"/><line x1="250.47" y1="84.91" x2="277.75" y2="84.91" fill="none" stroke="#0b479e" stroke-miterlimit="10"/><line x1="231.29" y1="53.93" x2="251.94" y2="53.93" fill="none" stroke="#5cbfff" stroke-miterlimit="10"/><line x1="245.3" y1="71.63" x2="273.33" y2="71.63" fill="none" stroke="#419cce" stroke-miterlimit="10"/><line x1="262.27" y1="58.36" x2="282.92" y2="58.36" fill="none" stroke="#5cbfff" stroke-miterlimit="10"/><line x1="204.74" y1="67.21" x2="225.39" y2="67.21" fill="none" stroke="#5cbfff" stroke-miterlimit="10"/><line x1="222.44" y1="71.63" x2="243.09" y2="71.63" fill="none" stroke="#5cbfff" stroke-miterlimit="10"/><line x1="228.34" y1="84.91" x2="248.99" y2="84.91" fill="none" stroke="#5cbfff" stroke-miterlimit="10"/><line x1="204.74" y1="76.06" x2="225.39" y2="76.06" fill="none" stroke="#660fb2" stroke-miterlimit="10"/><line x1="229.81" y1="76.06" x2="250.47" y2="76.06" fill="none" stroke="#906db5" stroke-miterlimit="10"/><line x1="256.37" y1="53.93" x2="282.18" y2="53.93" fill="none" stroke="#a3860d" stroke-miterlimit="10"/><line x1="228.34" y1="67.21" x2="254.15" y2="67.21" fill="none" stroke="#a3860d" stroke-miterlimit="10"/><line x1="265.22" y1="80.48" x2="282.18" y2="80.48" fill="none" stroke="#a3860d" stroke-miterlimit="10"/><line x1="205.92" y1="61.84" x2="204.74" y2="64.99" fill="none" stroke="#b5b3a3" stroke-miterlimit="10" stroke-width="0.25"/><text transform="translate(205.89 64.38)" font-size="2.46" fill="#898988" font-family="Avenir-Light, Avenir" font-weight="300">*</text><line x1="281.26" y1="61.88" x2="279.86" y2="64.95" fill="none" stroke="#bfbba3" stroke-miterlimit="10" stroke-width="0.25"/><text transform="matrix(-1, 0, 0, 1, 280, 64.38)" font-size="2.46" fill="#898988" font-family="Avenir-Light, Avenir" font-weight="300">*</text><text transform="translate(207.55 64.89)" font-size="7.38" fill="#898988" font-family="Avenir-Light, Avenir" font-weight="300">--------------</text><text transform="translate(242.95 64.89)" font-size="7.38" fill="#898988" font-family="Avenir-Light, Avenir" font-weight="300">--------------</text><text transform="translate(226.48 98.68)" font-size="11.8" fill="#6d6de2" font-family="Avenir-Black, Avenir" font-weight="800">&lt; / &gt;</text><text transform="translate(268.83 97.21)" font-size="6.85" fill="#4d4d8c" font-family="Avenir-Light, Avenir" font-weight="300"><tspan xml:space="preserve"> { }</tspan></text></g><rect x="35.67" y="37.74" width="92.91" height="40.65" rx="10.72" fill="#343470"/><polygon points="101.91 78.39 110.33 78.39 106.12 85.69 101.91 92.98 97.7 85.69 93.49 78.39 101.91 78.39" fill="#393977"/><rect x="201.93" y="244.41" width="73.14" height="32" rx="11.44" transform="translate(386.57 407.13) rotate(-180)" fill="#343470"/><polygon points="131.85 162.72 125.22 162.72 128.53 168.46 131.85 174.2 135.16 168.46 138.48 162.72 131.85 162.72" fill="#393977"/><text transform="translate(55.44 64.21)" font-size="20.32" fill="#dddded" font-family="Avenir-Light, Avenir" font-weight="300">React</text><text transform="translate(253.71 253.66)" font-size="17.42" fill="#2a2acc" font-family="Avenir-Roman, Avenir"> <tspan x="4.84" y="0" fill="#dadaea">{ </tspan><tspan x="15.49" y="0" fill="#dadaea" font-size="14.52" font-family="Avenir-Black, Avenir" font-weight="800">React Native</tspan><tspan x="103.94" y="0" xml:space="preserve" fill="#dadaea"> }</tspan></text><text transform="translate(133.46 152.27)" font-size="17.42" fill="#d6d6ea" font-family="Avenir-Roman, Avenir">CSS</text><text transform="translate(115.79 192.16)" font-size="17.42" fill="#d6d6ea" font-family="Avenir-Roman, Avenir">. #</text><text transform="translate(369.43 41.11)" font-size="14.52" fill="#dfdfef" font-family="Avenir-Black, Avenir" font-weight="800">HTML /</text><text transform="translate(232.45 23.84)" font-size="14.52" fill="#dfdfef" font-family="Avenir-Black, Avenir" font-weight="800">JavaScript }</text><text transform="translate(308.64 39.77)" font-size="14.52" fill="#a9a9d8" font-family="Avenir-Black, Avenir" font-weight="800">=</text><rect x="223.23" y="57.99" width="235.5" height="140.58" rx="2.81" fill="#050517"/><path d="M313.66,179.52h0c-1.62-7.06,4.28-11.71,9.57-11.71H539.58c5.29,0,11.13,4.65,9.58,11.71h0" transform="translate(-90.42 -113.69)" fill="#3535bc"/><circle cx="433.18" cy="61.36" r="1.7" fill="#d6d6ed"/><circle cx="440" cy="61.36" r="1.7" fill="#d6d6ed"/><circle cx="446.81" cy="61.36" r="1.7" fill="#d6d6ed"/><line x1="233.84" y1="73.29" x2="233.84" y2="185.74" fill="none" stroke="#e1e1ef" stroke-miterlimit="10" stroke-width="0.5"/><circle cx="242.36" cy="78.4" r="1.7" fill="#7d7dd3"/><circle cx="242.36" cy="160.18" r="1.7" fill="#7d7dd3"/><circle cx="242.36" cy="88.62" r="1.7" fill="#d1d1f2"/><circle cx="242.36" cy="149.96" r="1.7" fill="#d1d1f2"/><circle cx="242.36" cy="98.84" r="1.7" fill="#5d5da3"/><circle cx="242.36" cy="109.07" r="1.7" fill="#428acc"/><circle cx="242.36" cy="180.63" r="1.7" fill="#428acc"/><circle cx="242.36" cy="170.4" r="1.7" fill="#428acc"/><circle cx="242.36" cy="119.29" r="1.7" fill="#a1c11e"/><circle cx="242.36" cy="129.51" r="1.7" fill="#841fbf"/><circle cx="242.36" cy="139.73" r="1.7" fill="#0d7cba"/><line x1="254.29" y1="78.4" x2="301.99" y2="78.4" fill="none" stroke="#ffeb17" stroke-miterlimit="10"/><line x1="373.55" y1="109.07" x2="433.18" y2="109.07" fill="none" stroke="#ffeb17" stroke-miterlimit="10"/><line x1="363.33" y1="129.51" x2="422.96" y2="129.51" fill="none" stroke="#ffeb17" stroke-miterlimit="10"/><line x1="310.51" y1="88.62" x2="375.25" y2="88.62" fill="none" stroke="#ffeb17" stroke-miterlimit="10"/><line x1="254.29" y1="149.96" x2="303.69" y2="149.96" fill="none" stroke="#ffeb17" stroke-miterlimit="10"/><line x1="254.29" y1="88.62" x2="301.99" y2="88.62" fill="none" stroke="#e8e5d1" stroke-miterlimit="10"/><line x1="254.29" y1="139.73" x2="317.32" y2="139.73" fill="none" stroke="#994154" stroke-miterlimit="10"/><line x1="325.84" y1="139.73" x2="388.88" y2="139.73" fill="none" stroke="#0b479e" stroke-miterlimit="10"/><line x1="359.92" y1="149.96" x2="422.96" y2="149.96" fill="none" stroke="#0b479e" stroke-miterlimit="10"/><line x1="315.62" y1="78.4" x2="363.33" y2="78.4" fill="none" stroke="#5cbfff" stroke-miterlimit="10"/><line x1="347.99" y1="119.29" x2="412.74" y2="119.29" fill="none" stroke="#419cce" stroke-miterlimit="10"/><line x1="387.18" y1="88.62" x2="434.88" y2="88.62" fill="none" stroke="#5cbfff" stroke-miterlimit="10"/><line x1="254.29" y1="109.07" x2="301.99" y2="109.07" fill="none" stroke="#5cbfff" stroke-miterlimit="10"/><line x1="295.18" y1="119.29" x2="342.88" y2="119.29" fill="none" stroke="#5cbfff" stroke-miterlimit="10"/><line x1="308.81" y1="149.96" x2="356.51" y2="149.96" fill="none" stroke="#5cbfff" stroke-miterlimit="10"/><line x1="254.29" y1="129.51" x2="301.99" y2="129.51" fill="none" stroke="#660fb2" stroke-miterlimit="10"/><line x1="312.21" y1="129.51" x2="359.92" y2="129.51" fill="none" stroke="#906db5" stroke-miterlimit="10"/><line x1="373.55" y1="78.4" x2="433.18" y2="78.4" fill="none" stroke="#a3860d" stroke-miterlimit="10"/><line x1="308.81" y1="109.07" x2="368.44" y2="109.07" fill="none" stroke="#a3860d" stroke-miterlimit="10"/><line x1="393.99" y1="139.73" x2="433.18" y2="139.73" fill="none" stroke="#a3860d" stroke-miterlimit="10"/><line x1="257.02" y1="96.67" x2="254.29" y2="103.96" fill="none" stroke="#b5b3a3" stroke-miterlimit="10" stroke-width="0.25"/><text transform="translate(256.95 102.53)" font-size="5.7" fill="#898988" font-family="Avenir-Light, Avenir" font-weight="300">*</text><line x1="431.06" y1="96.77" x2="427.81" y2="103.85" fill="none" stroke="#bfbba3" stroke-miterlimit="10" stroke-width="0.25"/><text transform="matrix(-1, 0, 0, 1, 428.13, 102.53)" font-size="5.7" fill="#898988" font-family="Avenir-Light, Avenir" font-weight="300">*</text><text transform="translate(260.79 103.72)" font-size="17.04" fill="#898988" font-family="Avenir-Light, Avenir" font-weight="300">--------------</text><text transform="translate(342.56 103.72)" font-size="17.04" fill="#898988" font-family="Avenir-Light, Avenir" font-weight="300">--------------</text><text transform="translate(342.51 182.59)" font-size="27.26" fill="#6d6de2" font-family="Avenir-Black, Avenir" font-weight="800">/ </text><text transform="translate(56.58 147.1) scale(1.37 1)" opacity="0.3" font-size="10.34" fill="#9696e2" font-family="Avenir-Black, Avenir" font-weight="800">/ </text><text transform="translate(402.35 178.37)" font-size="15.83" fill="#4d4d8c" font-family="Avenir-Light, Avenir" font-weight="300"><tspan xml:space="preserve"> { }</tspan></text><polyline points="335.88 165.7 323.48 173.96 335.88 180.57" fill="none" stroke="#6d6de2" stroke-miterlimit="10" stroke-width="2"/><polyline points="357.36 165.7 369.75 173.96 357.36 180.57" fill="none" stroke="#6d6de2" stroke-miterlimit="10" stroke-width="2"/><g opacity="0.2"><polyline points="53.76 139.26 47.88 143.85 53.76 147.52" fill="none" stroke="#8f8fe2" stroke-miterlimit="10" stroke-width="3"/><polyline points="63.94 139.26 69.82 143.85 63.94 147.52" fill="none" stroke="#8f8fe2" stroke-miterlimit="10" stroke-width="3"/></g><polyline points="423.89 32.41 429.84 36.37 423.89 39.55" fill="none" stroke="#dfdfed" stroke-miterlimit="10" stroke-width="2"/><polyline points="322.57 32.41 328.52 36.37 322.57 39.55" fill="none" stroke="#2a2acc" stroke-miterlimit="10" stroke-width="2"/><polyline points="321.75 32.41 327.7 36.37 321.75 39.55" fill="none" stroke="#2a2acc" stroke-miterlimit="10" stroke-width="2"/><polyline points="321.75 31.58 327.7 35.55 321.75 38.72" fill="none" stroke="#a9a9d8" stroke-miterlimit="10" stroke-width="2"/><polyline points="365.7 32.41 359.76 36.37 365.7 39.55" fill="none" stroke="#dfdfef" stroke-miterlimit="10" stroke-width="2"/></svg>